<?xml version="1.0" encoding="UTF-8" standalone="no"?>
<!-- Created with Inkscape (http://www.inkscape.org/) -->

<svg
   xmlns:dc="http://purl.org/dc/elements/1.1/"
   xmlns:cc="http://creativecommons.org/ns#"
   xmlns:rdf="http://www.w3.org/1999/02/22-rdf-syntax-ns#"
   xmlns:svg="http://www.w3.org/2000/svg"
   xmlns="http://www.w3.org/2000/svg"
   xmlns:sodipodi="http://sodipodi.sourceforge.net/DTD/sodipodi-0.dtd"
   xmlns:inkscape="http://www.inkscape.org/namespaces/inkscape"
   width="80mm"
   height="50mm"
   viewBox="0 0 80 50"
   version="1.1"
   id="svg8"
   inkscape:version="0.92.3 (2405546, 2018-03-11)"
   sodipodi:docname="simple.svg">
  <defs
     id="defs2" />
  <sodipodi:namedview
     id="base"
     pagecolor="#ffffff"
     bordercolor="#666666"
     borderopacity="1.0"
     inkscape:pageopacity="0.0"
     inkscape:pageshadow="2"
     inkscape:zoom="0.98994949"
     inkscape:cx="100.63076"
     inkscape:cy="159.78291"
     inkscape:document-units="mm"
     inkscape:current-layer="layer1"
     showgrid="false"
     showguides="true"
     inkscape:guide-bbox="true"
     inkscape:window-width="1600"
     inkscape:window-height="841"
     inkscape:window-x="0"
     inkscape:window-y="0"
     inkscape:window-maximized="1" />
  <metadata
     id="metadata5">
    <rdf:RDF>
      <cc:Work
         rdf:about="">
        <dc:format>image/svg+xml</dc:format>
        <dc:type
           rdf:resource="http://purl.org/dc/dcmitype/StillImage" />
        <dc:title></dc:title>
      </cc:Work>
    </rdf:RDF>
  </metadata>
  <g
     inkscape:label="Layer 1"
     inkscape:groupmode="layer"
     id="layer1"
     transform="translate(0,-247)">
    <rect
       style="opacity:1;vector-effect:none;fill:#b3b3b3;fill-opacity:1;stroke:none;stroke-width:0.7723099;stroke-linecap:butt;stroke-linejoin:miter;stroke-miterlimit:4;stroke-dasharray:none;stroke-dashoffset:0;stroke-opacity:1"
       id="rect896"
       width="77.67411"
       height="47.813984"
       x="0.94494063"
       y="248.24107" />
    <path
       style="font-style:normal;font-weight:normal;font-size:10.97553825px;line-height:1.25;font-family:sans-serif;letter-spacing:0px;word-spacing:0px;fill:#000000;fill-opacity:1;stroke:none;stroke-width:0.27438843"
       d="m 5.0650263,250.03058 c -1.4048687,0 -2.3373238,0.53805 -2.3373238,1.95389 0,2.52437 2.787428,2.55722 2.787428,4.32428 0,0.46098 -0.18632,0.59273 -0.4826585,0.59273 -0.3402436,0 -0.4831741,-0.13175 -0.4831768,-0.59273 v -1.3503 H 2.7277025 v 1.44901 c 0,1.34998 1.130509,1.74511 2.2939163,1.74511 1.5256007,0 2.3156197,-0.68057 2.3156197,-2.15129 0,-2.41462 -2.7879406,-2.79897 -2.7879433,-4.11603 0,-0.38414 0.088056,-0.60358 0.4831768,-0.60358 0.3621905,0 0.4826585,0.21944 0.4826585,0.60358 v 1.09761 h 1.822108 v -1.22887 c 0,-1.30609 -1.04295,-1.72341 -2.2722122,-1.72341 z m 2.7770932,0.005 v 0.74725 h 0.670242 v -0.74725 z m 12.1181235,0 v 5.38004 h 0.659392 v -5.38004 z m -2.387452,1.36271 c -0.300307,0 -0.561758,0.0731 -0.783931,0.21962 -0.156252,0.0977 -0.300175,0.23571 -0.432014,0.41393 v -0.52038 h -0.640789 v 4.00596 h 0.658876 v -0.54105 c 0.144047,0.17822 0.275029,0.30399 0.392223,0.37724 0.125458,0.0811 0.271844,0.13363 0.4346,0.16381 h 0.614431 c 0.251335,-0.0469 0.479763,-0.15123 0.683162,-0.31781 0.446789,-0.36622 0.670245,-0.9769 0.670245,-1.83141 0,-0.63235 -0.155022,-1.11791 -0.46509,-1.45728 -0.310057,-0.34181 -0.687366,-0.51263 -1.131713,-0.51263 z m -6.244063,0.007 c -0.275886,0 -0.522719,0.0743 -0.740005,0.22324 -0.126961,0.0879 -0.268526,0.22829 -0.424781,0.42116 v -0.55655 H 9.5123015 v 3.92224 h 0.6588745 v -2.07998 c 0,-0.50538 0.101729,-0.8546 0.304374,-1.04748 0.205081,-0.19288 0.432062,-0.28939 0.681096,-0.28939 0.273446,0 0.460073,0.0918 0.560173,0.27492 0.06347,0.12207 0.09508,0.31576 0.09508,0.58188 v 2.56005 h 0.670248 v -2.28152 c 0,-0.40528 0.09298,-0.69482 0.278535,-0.86816 0.187994,-0.17335 0.411451,-0.25993 0.670242,-0.25993 0.187995,0 0.346541,0.0491 0.475941,0.14676 0.131842,0.0977 0.197921,0.27671 0.197921,0.53795 v 2.7249 h 0.684713 v -2.61121 c 0,-0.34669 -0.05146,-0.62278 -0.153995,-0.82786 -0.190434,-0.38087 -0.549061,-0.57102 -1.076421,-0.57102 -0.246586,0 -0.468865,0.0515 -0.666625,0.15399 -0.19776,0.1001 -0.369761,0.25512 -0.516247,0.46509 -0.0879,-0.1709 -0.185579,-0.30071 -0.293008,-0.38861 -0.190431,-0.15381 -0.441962,-0.23047 -0.754475,-0.23047 z m 11.916584,0 c -0.551772,0 -0.998161,0.19655 -1.339969,0.58963 -0.341807,0.39307 -0.513146,0.90437 -0.513146,1.53427 0,0.63967 0.169654,1.13803 0.509014,1.49448 0.250279,0.26109 0.541443,0.42506 0.872812,0.49351 h 0.784966 c 0.04073,-0.007 0.08417,-0.0118 0.122473,-0.0212 0.295421,-0.0684 0.542907,-0.2 0.743109,-0.39532 0.119631,-0.11231 0.227245,-0.25675 0.322461,-0.43253 0.09769,-0.17823 0.155014,-0.33914 0.172082,-0.48318 h -0.648023 c -0.04883,0.17334 -0.131886,0.32602 -0.249081,0.45786 -0.205079,0.22705 -0.479991,0.34054 -0.824238,0.34054 -0.368668,0 -0.640702,-0.11988 -0.816488,-0.35915 -0.175795,-0.2417 -0.269955,-0.56167 -0.282155,-0.95963 h 2.874762 c 0,-0.39552 -0.01933,-0.68336 -0.0584,-0.86403 -0.04394,-0.26368 -0.131706,-0.49419 -0.263545,-0.69195 -0.136726,-0.20752 -0.33614,-0.37599 -0.597379,-0.50539 -0.261234,-0.13184 -0.530926,-0.19792 -0.809255,-0.19792 z m -15.4031925,0.10582 v 3.90416 h 0.02532 v 2.08669 h 0.235645 v -0.1943 c 0.05388,0.0728 0.104146,0.12607 0.151411,0.15916 0.07941,0.0558 0.17716,0.0832 0.292489,0.0832 0.206078,0 0.3669,-0.0794 0.483174,-0.23823 0.116274,-0.15881 0.174667,-0.35778 0.174667,-0.59789 0,-0.25335 -0.05909,-0.44514 -0.177249,-0.57465 -0.117221,-0.13045 -0.270341,-0.19533 -0.459404,-0.19533 -0.09075,0 -0.175184,0.0191 -0.252699,0.0579 -0.07752,0.0378 -0.143697,0.0931 -0.199472,0.16589 v -0.75241 h 0.396359 v -3.90416 z m 9.5802935,0.46509 c 0.454115,0 0.766511,0.2164 0.937411,0.64854 0.09033,0.22462 0.135908,0.49312 0.135908,0.80563 0,0.51271 -0.10291,0.89824 -0.307991,1.15704 -0.202639,0.25636 -0.4577,0.38447 -0.765328,0.38447 -0.454121,0 -0.766511,-0.20243 -0.937411,-0.60771 -0.09033,-0.21241 -0.135393,-0.46982 -0.135393,-0.77256 0,-0.37599 0.04506,-0.68603 0.135393,-0.93018 0.16846,-0.45655 0.480851,-0.68523 0.937411,-0.68523 z m 5.782593,0.004 c 0.422373,0 0.72418,0.15855 0.904854,0.47594 0.09765,0.17091 0.159686,0.39906 0.186552,0.68471 h -2.178677 c 0.01221,-0.33692 0.120473,-0.61418 0.325559,-0.83147 0.205089,-0.21973 0.458973,-0.32918 0.761712,-0.32918 z m -13.6937385,3.43856 v 2.08307 h 0.255283 v -2.08307 z m 11.1450575,0 v 2.08307 h 0.25528 v -2.08307 z m -6.416146,0.14056 v 0.42374 h -0.205674 v 0.20877 h 0.205674 v 1.00511 c 0,0.0974 0.02102,0.17678 0.06356,0.23823 0.04254,0.0605 0.123253,0.0909 0.242364,0.0909 0.03687,0 0.07112,-0.002 0.102319,-0.006 0.03214,-0.004 0.06268,-0.0101 0.09198,-0.0186 v -0.20102 c -0.01891,0.002 -0.03543,0.003 -0.04961,0.004 h -0.03979 c -0.04632,0 -0.07937,-0.005 -0.09922,-0.0155 -0.03592,-0.018 -0.05374,-0.0535 -0.05374,-0.10645 v -0.99116 h 0.242361 v -0.20877 h -0.242358 v -0.42374 z m 8.722982,0 v 0.42374 h -0.205674 v 0.20877 h 0.205674 v 1.00511 c 0,0.0974 0.02154,0.17678 0.06408,0.23823 0.04254,0.0605 0.123251,0.0909 0.242361,0.0909 0.03687,0 0.07112,-0.002 0.10232,-0.006 0.03214,-0.004 0.06268,-0.0101 0.09199,-0.0186 v -0.20102 c -0.01891,0.002 -0.03543,0.003 -0.04961,0.004 h -0.03979 c -0.04632,0 -0.07937,-0.005 -0.09922,-0.0155 -0.03592,-0.018 -0.05374,-0.0535 -0.05374,-0.10645 v -0.99116 h 0.242364 v -0.20877 h -0.242374 v -0.42374 z m -12.20029,0.37982 c -0.218368,0 -0.391906,0.0756 -0.521414,0.22686 -0.129508,0.15125 -0.194305,0.35454 -0.194305,0.60978 0,0.23822 0.0616,0.42819 0.184486,0.56999 0.122891,0.14085 0.28873,0.21136 0.497645,0.21136 0.250507,0 0.435377,-0.08 0.554487,-0.23978 0.11911,-0.15976 0.178284,-0.36185 0.178284,-0.60668 0,-0.25335 -0.06739,-0.44523 -0.202573,-0.57568 -0.135178,-0.13045 -0.300929,-0.19585 -0.49661,-0.19585 z m 8.968963,0.007 c -0.116274,0 -0.217319,0.0285 -0.303343,0.0853 -0.0605,0.0378 -0.116384,0.0912 -0.167431,0.1602 v -0.20155 h -0.248046 v 2.11719 h 0.25528 v -0.77566 c 0.05577,0.069 0.106037,0.11788 0.151413,0.14624 0.07751,0.0501 0.173456,0.0749 0.287838,0.0749 0.145579,0 0.273267,-0.0451 0.382923,-0.13487 0.172993,-0.1418 0.259414,-0.37815 0.259416,-0.70901 0,-0.24483 -0.05978,-0.4329 -0.179834,-0.5643 -0.120055,-0.13235 -0.266171,-0.19844 -0.438216,-0.19844 z m 2.159558,0 c -0.154088,0 -0.289991,0.0368 -0.407212,0.11058 -0.116272,0.0728 -0.176657,0.20299 -0.181383,0.39016 h 0.238228 c 0.0095,-0.0785 0.02978,-0.13755 0.06098,-0.17725 0.05577,-0.0718 0.150413,-0.10801 0.283702,-0.10801 0.115329,0 0.203655,0.0197 0.265102,0.0594 0.06239,0.0388 0.09353,0.10165 0.09353,0.18862 0,0.0425 -0.0057,0.0755 -0.01705,0.0982 -0.01985,0.0416 -0.0587,0.0658 -0.117305,0.0734 l -0.40721,0.0512 c -0.142743,0.018 -0.258318,0.0656 -0.346234,0.14314 -0.08791,0.0775 -0.131773,0.18678 -0.131773,0.32763 0,0.12856 0.04446,0.23592 0.133324,0.32194 0.08981,0.0851 0.20538,0.12764 0.346234,0.12764 0.117218,0 0.224575,-0.0248 0.321942,-0.0749 0.09737,-0.0501 0.171767,-0.10918 0.223761,-0.17725 0.0085,0.0605 0.02313,0.10696 0.04392,0.14005 0.0397,0.0624 0.103807,0.0935 0.19172,0.0935 0.03592,0 0.06395,-0.001 0.08475,-0.004 0.0208,-0.003 0.05125,-0.01 0.09095,-0.0212 v -0.18862 c -0.01607,0.003 -0.0313,0.005 -0.04547,0.007 -0.01418,9.4e-4 -0.0269,0.001 -0.03824,0.001 -0.03498,0 -0.0579,-0.008 -0.06925,-0.0238 -0.0104,-0.0161 -0.01602,-0.0376 -0.01602,-0.0641 v -0.87488 c 0,-0.14369 -0.05528,-0.24923 -0.165881,-0.31729 -0.111548,-0.0681 -0.256453,-0.10232 -0.435115,-0.10232 z m -6.264735,0.003 c -0.213641,0 -0.386493,0.0757 -0.51883,0.22789 -0.132344,0.15219 -0.198437,0.35039 -0.198437,0.59428 -3e-6,0.24767 0.06549,0.44076 0.196887,0.57877 0.131397,0.13707 0.291526,0.20516 0.480589,0.20516 0.07752,0 0.147328,-0.007 0.208772,-0.0222 0.114385,-0.0265 0.210323,-0.0779 0.28784,-0.15348 0.04631,-0.0435 0.08767,-0.0994 0.12454,-0.16743 0.03781,-0.069 0.06004,-0.1313 0.06666,-0.18707 h -0.250629 c -0.01891,0.0671 -0.05126,0.12621 -0.09664,0.17725 -0.07941,0.0879 -0.185555,0.13177 -0.318844,0.13177 -0.142743,0 -0.248195,-0.0464 -0.316259,-0.13901 -0.06806,-0.0936 -0.104823,-0.21695 -0.109549,-0.37104 h 1.11311 c 0,-0.15314 -0.0076,-0.26491 -0.02274,-0.33486 -0.01701,-0.10209 -0.05075,-0.19163 -0.101801,-0.2682 -0.05294,-0.0804 -0.129847,-0.14524 -0.230995,-0.19534 -0.101147,-0.051 -0.205909,-0.0765 -0.313676,-0.0765 z m 1.687753,0 c -0.10682,0 -0.202671,0.0286 -0.286806,0.0863 -0.04915,0.034 -0.10383,0.0881 -0.16433,0.16278 v -0.21549 h -0.25218 v 1.51877 h 0.254765 v -0.80512 c 0,-0.19568 0.03936,-0.33098 0.117822,-0.40566 0.07941,-0.0747 0.167645,-0.11214 0.264067,-0.11214 0.105873,0 0.177771,0.0356 0.216522,0.10646 0.02458,0.0473 0.03721,0.12227 0.03721,0.22531 v 0.99115 h 0.259416 v -0.88315 c 0,-0.15692 0.03564,-0.2693 0.107487,-0.33641 0.07279,-0.0671 0.159729,-0.10026 0.259932,-0.10026 0.07279,0 0.133866,0.0185 0.183968,0.0563 0.05105,0.0378 0.07648,0.10763 0.07648,0.20878 v 1.05471 h 0.265615 v -1.01079 c 0,-0.13423 -0.02024,-0.24099 -0.05994,-0.32039 -0.07373,-0.14747 -0.212326,-0.22118 -0.416513,-0.22118 -0.09548,0 -0.181811,0.0197 -0.258381,0.0594 -0.07657,0.0388 -0.143269,0.0985 -0.199988,0.17983 -0.03403,-0.0662 -0.07158,-0.11634 -0.113173,-0.15038 -0.07373,-0.0596 -0.170971,-0.0889 -0.29197,-0.0889 z m 7.035747,0 c -0.213643,0 -0.386488,0.0757 -0.518832,0.22789 -0.132345,0.15219 -0.198438,0.35039 -0.198438,0.59428 0,0.24767 0.06549,0.44076 0.196887,0.57877 0.131398,0.13707 0.291534,0.20516 0.480589,0.20516 0.07752,0 0.146812,-0.007 0.208257,-0.0222 0.114384,-0.0265 0.210328,-0.0779 0.287837,-0.15348 0.04632,-0.0435 0.08819,-0.0994 0.125058,-0.16743 0.03781,-0.069 0.06004,-0.1313 0.06666,-0.18707 H 24.74703 c -0.01891,0.0671 -0.05074,0.12621 -0.09612,0.17725 -0.0794,0.0879 -0.186071,0.13177 -0.31936,0.13177 -0.142742,0 -0.248195,-0.0464 -0.316259,-0.13901 -0.06806,-0.0936 -0.104308,-0.21695 -0.109036,-0.37104 h 1.11311 c 0,-0.15314 -0.0076,-0.26491 -0.02274,-0.33486 -0.01702,-0.10209 -0.05076,-0.19163 -0.101804,-0.2682 -0.05294,-0.0804 -0.130362,-0.14524 -0.23151,-0.19534 -0.101148,-0.051 -0.205393,-0.0765 -0.313158,-0.0765 z m -12.047329,0.007 c -0.175828,0 -0.325837,0.0717 -0.450617,0.21445 -0.123835,0.14274 -0.186036,0.34102 -0.186036,0.59531 0,0.26942 0.0616,0.4626 0.184486,0.57981 0.123835,0.11628 0.268047,0.17467 0.43253,0.17467 0.118166,0 0.21341,-0.019 0.285255,-0.0568 0.07184,-0.0378 0.132922,-0.0956 0.183968,-0.17311 0.0028,0.20891 -0.01369,0.35434 -0.04961,0.43563 -0.0605,0.13802 -0.188274,0.20671 -0.383955,0.20671 -0.123836,0 -0.21467,-0.028 -0.272336,-0.0847 -0.03687,-0.0369 -0.06161,-0.0896 -0.0739,-0.15761 h -0.259416 c 0.01323,0.15597 0.07552,0.27034 0.187068,0.34313 0.111546,0.0737 0.249354,0.11058 0.412896,0.11058 0.293986,0 0.493569,-0.10294 0.599445,-0.30902 0.05672,-0.11155 0.08527,-0.26398 0.08527,-0.45682 v -1.3808 H 12.76223 v 0.1912 c -0.0501,-0.0633 -0.09907,-0.1116 -0.147277,-0.14469 -0.08886,-0.0586 -0.193016,-0.0879 -0.312127,-0.0879 z m -1.546674,0.20567 c 0.175829,0 0.299709,0.0699 0.371554,0.2098 0.04537,0.0889 0.0677,0.20444 0.0677,0.34623 0,0.15693 -0.03123,0.29932 -0.09457,0.42789 -0.06239,0.12761 -0.17857,0.19172 -0.347781,0.19172 -0.154086,0 -0.266549,-0.054 -0.337447,-0.16175 -0.0709,-0.10777 -0.106457,-0.24247 -0.106457,-0.40412 0,-0.16826 0.03556,-0.31187 0.106453,-0.43098 0.0709,-0.11911 0.184571,-0.1788 0.340548,-0.1788 z m 8.917283,0.009 c 0.175829,0 0.297114,0.0833 0.363287,0.25063 0.03498,0.087 0.05219,0.19112 0.05219,0.31212 0,0.19852 -0.03945,0.34784 -0.118856,0.44804 -0.07846,0.0993 -0.177514,0.14883 -0.296625,0.14883 -0.175826,0 -0.296595,-0.0782 -0.362767,-0.23513 -0.03497,-0.0822 -0.05271,-0.18199 -0.05271,-0.29921 0,-0.14558 0.01774,-0.26565 0.05271,-0.36018 0.06523,-0.17678 0.185994,-0.2651 0.362767,-0.2651 z m -11.1352355,10e-4 c 0.133289,0 0.234243,0.0527 0.302307,0.15761 0.069,0.10493 0.103352,0.23712 0.103352,0.39687 0,0.17961 -0.03435,0.32443 -0.103352,0.43409 -0.06806,0.10965 -0.17101,0.16433 -0.309025,0.16433 -0.183391,0 -0.309089,-0.0838 -0.376206,-0.25115 -0.03592,-0.0889 -0.05374,-0.20452 -0.05374,-0.34727 0,-0.19757 0.04377,-0.33927 0.130741,-0.42529 0.08791,-0.086 0.189651,-0.12919 0.305925,-0.12919 z m 7.0729535,0 c 0.163539,0 0.280413,0.0616 0.350366,0.18448 0.03781,0.0662 0.06195,0.1545 0.07235,0.2651 h -0.843878 c 0.0047,-0.13045 0.04669,-0.23781 0.12609,-0.32194 0.07941,-0.0851 0.177855,-0.12764 0.295074,-0.12764 z m 8.723497,0 c 0.163539,0 0.280414,0.0616 0.350367,0.18448 0.03781,0.0662 0.06144,0.1545 0.07183,0.2651 h -0.84336 c 0.0047,-0.13045 0.04669,-0.23781 0.126093,-0.32194 0.07941,-0.0851 0.177853,-0.12764 0.29507,-0.12764 z m -11.984796,0.0103 c 0.120054,0 0.218588,0.0452 0.296105,0.13591 0.07752,0.0908 0.116271,0.22995 0.116271,0.41806 0,0.12479 -0.02042,0.23405 -0.06201,0.32763 -0.07468,0.16543 -0.203671,0.24805 -0.387056,0.24805 -0.117221,0 -0.211172,-0.0439 -0.28112,-0.13281 -0.06901,-0.0898 -0.103354,-0.2206 -0.103354,-0.39171 0,-0.14557 0.01773,-0.26314 0.05271,-0.35295 0.06617,-0.16826 0.188844,-0.25218 0.368454,-0.25218 z m 9.887251,0.54726 v 0.20567 c 0,0.15692 -0.07059,0.26947 -0.212392,0.33848 -0.08413,0.0416 -0.171161,0.0625 -0.260966,0.0625 -0.07373,0 -0.137319,-0.021 -0.191201,-0.0636 -0.05388,-0.0425 -0.08113,-0.10093 -0.08113,-0.17467 0,-0.0974 0.03936,-0.16796 0.117822,-0.21239 0.04632,-0.0265 0.115615,-0.0461 0.208256,-0.0584 l 0.154511,-0.0196 c 0.04727,-0.006 0.09554,-0.0152 0.144695,-0.0284 0.04916,-0.0132 0.08921,-0.0298 0.120407,-0.0496 z"
       id="text817"
       inkscape:connector-curvature="0" />
    <g
       aria-label="imple"
       style="font-style:normal;font-weight:normal;font-size:7.50021362px;line-height:1.25;font-family:sans-serif;letter-spacing:0px;word-spacing:0px;fill:#000000;fill-opacity:1;stroke:none;stroke-width:0.18750535"
       id="text817-7" />
    <path
       style="font-style:normal;font-weight:normal;font-size:10.97553825px;line-height:1.25;font-family:sans-serif;letter-spacing:0px;word-spacing:0px;fill:#ffffff;fill-opacity:1;stroke:none;stroke-width:0.27438846"
       d="m 4.7986358,259.67708 c -1.404869,0 -2.337324,0.53805 -2.337324,1.95389 0,2.52437 2.7874277,2.55722 2.7874277,4.32428 0,0.46098 -0.1863197,0.59273 -0.4826577,0.59273 -0.340244,0 -0.483175,-0.13175 -0.483177,-0.59273 v -1.3503 h -1.821593 v 1.44901 c 0,1.34999 1.130509,1.74511 2.293916,1.74511 1.5256007,0 2.3156197,-0.68057 2.3156197,-2.15129 0,-2.41462 -2.7879407,-2.79896 -2.7879427,-4.11603 0,-0.38414 0.08806,-0.60358 0.483177,-0.60358 0.3621897,0 0.4826577,0.21944 0.4826577,0.60358 v 1.09761 h 1.822108 v -1.22887 c 0,-1.30608 -1.04295,-1.72341 -2.2722117,-1.72341 z m 2.7770927,0.005 v 0.74725 h 0.670243 v -0.74724 z m 12.1181245,0 v 5.38004 h 0.659392 v -5.38003 z m -2.387452,1.36271 c -0.300307,0 -0.561758,0.0731 -0.783931,0.21963 -0.156252,0.0977 -0.300175,0.2357 -0.432014,0.41392 v -0.52032 h -0.640789 v 4.00595 h 0.658876 v -0.54105 c 0.144047,0.17823 0.275029,0.30399 0.392223,0.37724 0.125458,0.0811 0.271844,0.13363 0.4346,0.16381 h 0.614431 c 0.251335,-0.0469 0.479763,-0.15123 0.683162,-0.31781 0.446789,-0.36622 0.670245,-0.9769 0.670245,-1.83141 0,-0.63234 -0.155022,-1.11791 -0.46509,-1.45728 -0.310057,-0.3418 -0.687366,-0.51263 -1.131713,-0.51263 z m -6.244063,0.007 c -0.275886,0 -0.522719,0.0743 -0.740006,0.22324 -0.126961,0.0879 -0.268526,0.22829 -0.4247815,0.42116 v -0.55655 h -0.65164 v 3.92224 h 0.658874 v -2.07998 c 0,-0.50538 0.1017295,-0.8546 0.3043745,-1.04748 0.205082,-0.19288 0.432063,-0.28939 0.681097,-0.28939 0.273446,0 0.460073,0.0918 0.560173,0.27492 0.06347,0.12208 0.09508,0.31576 0.09508,0.58188 v 2.56005 h 0.670248 v -2.28152 c 0,-0.40528 0.09298,-0.69482 0.278535,-0.86816 0.187994,-0.17334 0.411451,-0.25993 0.670242,-0.25993 0.187995,0 0.346541,0.0491 0.475941,0.14676 0.131842,0.0977 0.197921,0.27671 0.197921,0.53795 v 2.7249 h 0.684713 v -2.61112 c 0,-0.34668 -0.05146,-0.62277 -0.153995,-0.82786 -0.190434,-0.38087 -0.549061,-0.57102 -1.076421,-0.57102 -0.246586,0 -0.468865,0.0515 -0.666625,0.15399 -0.19776,0.1001 -0.369761,0.25512 -0.516247,0.46509 -0.0879,-0.1709 -0.185579,-0.30071 -0.293008,-0.38861 -0.190431,-0.15381 -0.441962,-0.23047 -0.754475,-0.23047 z m 11.916584,0 c -0.551772,0 -0.998161,0.19655 -1.339969,0.58963 -0.341807,0.39308 -0.513146,0.90437 -0.513146,1.53427 0,0.63967 0.169654,1.13803 0.509014,1.49448 0.250279,0.26109 0.541443,0.42507 0.872812,0.49351 h 0.784966 c 0.04073,-0.007 0.08417,-0.0118 0.122473,-0.0212 0.295421,-0.0684 0.542907,-0.2 0.743109,-0.39532 0.119631,-0.11231 0.227245,-0.25675 0.322461,-0.43253 0.09769,-0.17823 0.155014,-0.33914 0.172082,-0.48318 h -0.648023 c -0.04883,0.17334 -0.131886,0.32602 -0.249081,0.45786 -0.205079,0.22705 -0.479991,0.34054 -0.824238,0.34054 -0.368668,0 -0.640702,-0.11988 -0.816488,-0.35915 -0.175795,-0.2417 -0.269955,-0.56167 -0.282155,-0.95963 h 2.874762 c 0,-0.39552 -0.01933,-0.68336 -0.0584,-0.86403 -0.04394,-0.26368 -0.131706,-0.49419 -0.263545,-0.69195 -0.136726,-0.20743 -0.33614,-0.3759 -0.597379,-0.5053 -0.261234,-0.13184 -0.530926,-0.19792 -0.809255,-0.19792 z m -15.4031935,0.10603 v 3.90415 h 0.02532 v 2.08669 h 0.235646 v -0.1943 c 0.05388,0.0728 0.104145,0.12608 0.15141,0.15916 0.07941,0.0558 0.17716,0.0832 0.292489,0.0832 0.206079,0 0.3669,-0.0794 0.483174,-0.23823 0.116274,-0.15881 0.174667,-0.35778 0.174667,-0.59789 0,-0.25334 -0.05909,-0.44514 -0.17725,-0.57464 -0.117221,-0.13046 -0.27034,-0.19534 -0.459404,-0.19534 -0.09075,0 -0.175183,0.0191 -0.252698,0.0579 -0.07752,0.0378 -0.143698,0.0931 -0.199472,0.16588 v -0.75241 h 0.396359 v -3.90415 z m 9.5802945,0.46508 c 0.454115,0 0.766511,0.2164 0.937411,0.64854 0.09033,0.22462 0.135908,0.49313 0.135908,0.80564 0,0.51271 -0.10291,0.89824 -0.307991,1.15703 -0.202639,0.25636 -0.4577,0.38447 -0.765328,0.38447 -0.454121,0 -0.766511,-0.20243 -0.937411,-0.60771 -0.09033,-0.21241 -0.135393,-0.46982 -0.135393,-0.77256 0,-0.37599 0.04506,-0.68603 0.135393,-0.93018 0.16846,-0.45655 0.480851,-0.68523 0.937411,-0.68523 z m 5.782593,0.004 c 0.422373,0 0.72418,0.15855 0.904854,0.47594 0.09765,0.17091 0.159686,0.39906 0.186552,0.68472 h -2.178677 c 0.01221,-0.33693 0.120473,-0.61419 0.325559,-0.83148 0.205089,-0.21973 0.458973,-0.32918 0.761712,-0.32918 z m -13.6937395,3.43859 v 2.08307 h 0.255283 v -2.08307 z m 11.1450585,0 v 2.08307 h 0.25528 v -2.08307 z m -6.416146,0.14056 v 0.42374 h -0.205674 v 0.20877 h 0.205674 v 1.00511 c 0,0.0974 0.02102,0.17679 0.06356,0.23823 0.04254,0.0605 0.123253,0.091 0.242364,0.091 0.03687,0 0.07112,-0.002 0.102319,-0.006 0.03214,-0.004 0.06268,-0.0101 0.09198,-0.0186 v -0.20102 c -0.01891,0.002 -0.03543,0.003 -0.04961,0.004 h -0.03979 c -0.04632,0 -0.07937,-0.005 -0.09922,-0.0155 -0.03592,-0.018 -0.05374,-0.0535 -0.05374,-0.10645 v -0.99111 h 0.242361 v -0.20877 h -0.242358 v -0.42374 z m 8.722982,0 v 0.42374 h -0.205674 v 0.20877 h 0.205674 v 1.00511 c 0,0.0974 0.02154,0.17679 0.06408,0.23823 0.04254,0.0605 0.123251,0.091 0.242361,0.091 0.03687,0 0.07112,-0.002 0.10232,-0.006 0.03214,-0.004 0.06268,-0.0101 0.09199,-0.0186 v -0.20102 c -0.01891,0.002 -0.03543,0.003 -0.04961,0.004 h -0.03979 c -0.04632,0 -0.07937,-0.005 -0.09922,-0.0155 -0.03592,-0.018 -0.05374,-0.0535 -0.05374,-0.10645 v -0.99111 h 0.242364 v -0.20877 h -0.242374 v -0.42374 z m -12.20029,0.37982 c -0.218369,0 -0.391907,0.0756 -0.5214155,0.22686 -0.129508,0.15125 -0.194305,0.35455 -0.194305,0.60978 0,0.23822 0.0616,0.42819 0.184486,0.56999 0.1228915,0.14085 0.2887305,0.21136 0.4976465,0.21136 0.250507,0 0.435377,-0.08 0.554487,-0.23978 0.11911,-0.15976 0.178284,-0.36185 0.178284,-0.60668 0,-0.25335 -0.06739,-0.44523 -0.202573,-0.57568 -0.135178,-0.13045 -0.300929,-0.19585 -0.49661,-0.19585 z m 8.968963,0.007 c -0.116274,0 -0.217319,0.0285 -0.303343,0.0853 -0.0605,0.0378 -0.116384,0.0912 -0.167431,0.16019 v -0.20154 h -0.248046 v 2.11719 h 0.25528 v -0.77567 c 0.05577,0.069 0.106037,0.11789 0.151413,0.14625 0.07751,0.0501 0.173456,0.0749 0.287838,0.0749 0.145579,0 0.273267,-0.0451 0.382923,-0.13488 0.172993,-0.1418 0.259414,-0.37814 0.259416,-0.709 0,-0.24483 -0.05978,-0.43291 -0.179834,-0.5643 -0.120055,-0.13235 -0.266171,-0.19844 -0.438216,-0.19844 z m 2.159558,0 c -0.154088,0 -0.289991,0.0368 -0.407212,0.11058 -0.116272,0.0728 -0.176657,0.20299 -0.181383,0.39016 h 0.238228 c 0.0095,-0.0785 0.02978,-0.13755 0.06098,-0.17725 0.05577,-0.0718 0.150413,-0.108 0.283702,-0.108 0.115329,0 0.203655,0.0197 0.265102,0.0594 0.06239,0.0388 0.09353,0.10165 0.09353,0.18862 0,0.0425 -0.0057,0.0755 -0.01705,0.0982 -0.01985,0.0416 -0.0587,0.0658 -0.117305,0.0734 l -0.40721,0.0512 c -0.142743,0.018 -0.258318,0.0656 -0.346234,0.14314 -0.08791,0.0775 -0.131773,0.18678 -0.131773,0.32763 0,0.12856 0.04446,0.23592 0.133324,0.32194 0.08981,0.0851 0.20538,0.12764 0.346234,0.12764 0.117218,0 0.224575,-0.0248 0.321942,-0.0749 0.09737,-0.0501 0.171767,-0.10919 0.223761,-0.17725 0.0085,0.0605 0.02313,0.10696 0.04392,0.14005 0.0397,0.0624 0.103807,0.0935 0.19172,0.0935 0.03592,0 0.06395,-10e-4 0.08475,-0.004 0.0208,-0.003 0.05125,-0.01 0.09095,-0.0212 v -0.18863 c -0.01607,0.003 -0.0313,0.005 -0.04547,0.007 -0.01418,9.5e-4 -0.0269,10e-4 -0.03824,10e-4 -0.03498,0 -0.0579,-0.008 -0.06925,-0.0238 -0.0104,-0.0161 -0.01602,-0.0376 -0.01602,-0.0641 v -0.87484 c 0,-0.14369 -0.05528,-0.24923 -0.165881,-0.31729 -0.111548,-0.0681 -0.256453,-0.10232 -0.435115,-0.10232 z m -6.264735,0.003 c -0.213641,0 -0.386493,0.0757 -0.51883,0.22789 -0.132344,0.15219 -0.198437,0.35039 -0.198437,0.59428 -3e-6,0.24767 0.06549,0.44076 0.196887,0.57877 0.131397,0.13707 0.291526,0.20516 0.480589,0.20516 0.07752,0 0.147328,-0.007 0.208772,-0.0222 0.114385,-0.0265 0.210323,-0.0779 0.28784,-0.15348 0.04631,-0.0435 0.08767,-0.0994 0.12454,-0.16743 0.03781,-0.069 0.06004,-0.13129 0.06666,-0.18707 h -0.250629 c -0.01891,0.0671 -0.05126,0.12621 -0.09664,0.17725 -0.07941,0.0879 -0.185555,0.13178 -0.318844,0.13178 -0.142743,0 -0.248195,-0.0464 -0.316259,-0.13901 -0.06806,-0.0936 -0.104823,-0.21696 -0.109549,-0.37104 h 1.11311 c 0,-0.15314 -0.0076,-0.26491 -0.02274,-0.33487 -0.01701,-0.10209 -0.05075,-0.19163 -0.101801,-0.2682 -0.05294,-0.0804 -0.129847,-0.14523 -0.230995,-0.19533 -0.101147,-0.051 -0.205909,-0.0765 -0.313676,-0.0765 z m 1.687753,0 c -0.10682,0 -0.202671,0.0286 -0.286806,0.0863 -0.04915,0.034 -0.10383,0.0881 -0.16433,0.16278 v -0.2155 h -0.25218 v 1.51877 h 0.254765 v -0.80511 c 0,-0.19568 0.03936,-0.33098 0.117822,-0.40567 0.07941,-0.0747 0.167645,-0.11213 0.264067,-0.11213 0.105873,0 0.177771,0.0356 0.216522,0.10645 0.02458,0.0473 0.03721,0.12227 0.03721,0.22531 v 0.99115 h 0.259416 v -0.88315 c 0,-0.15692 0.03564,-0.26929 0.107487,-0.33641 0.07279,-0.0671 0.159729,-0.10025 0.259932,-0.10025 0.07279,0 0.133866,0.0185 0.183968,0.0563 0.05105,0.0378 0.07648,0.10762 0.07648,0.20877 v 1.05472 h 0.265615 v -1.01079 c 0,-0.13424 -0.02024,-0.24099 -0.05994,-0.3204 -0.07373,-0.14747 -0.212326,-0.22117 -0.416513,-0.22117 -0.09548,0 -0.181811,0.0197 -0.258381,0.0594 -0.07657,0.0388 -0.143269,0.0985 -0.199988,0.17983 -0.03403,-0.0662 -0.07158,-0.11635 -0.113173,-0.15038 -0.07373,-0.0596 -0.170971,-0.0889 -0.29197,-0.0889 z m 7.035747,0 c -0.213643,0 -0.386488,0.0757 -0.518832,0.22789 -0.132345,0.15219 -0.198438,0.35039 -0.198438,0.59428 0,0.24767 0.06549,0.44076 0.196887,0.57877 0.131398,0.13707 0.291534,0.20516 0.480589,0.20516 0.07752,0 0.146812,-0.007 0.208257,-0.0222 0.114384,-0.0265 0.210328,-0.0779 0.287837,-0.15348 0.04632,-0.0435 0.08819,-0.0994 0.125058,-0.16743 0.03781,-0.069 0.06004,-0.13129 0.06666,-0.18707 H 24.48064 c -0.01891,0.0671 -0.05074,0.12621 -0.09612,0.17725 -0.0794,0.0879 -0.186071,0.13178 -0.31936,0.13178 -0.142742,0 -0.248195,-0.0464 -0.316259,-0.13901 -0.06806,-0.0936 -0.104308,-0.21696 -0.109036,-0.37104 h 1.11311 c 0,-0.15314 -0.0076,-0.26491 -0.02274,-0.33487 -0.01702,-0.10209 -0.05076,-0.19163 -0.101804,-0.2682 -0.05294,-0.0804 -0.130362,-0.14523 -0.23151,-0.19533 -0.101148,-0.051 -0.205393,-0.0765 -0.313158,-0.0765 z m -12.047329,0.007 c -0.175828,0 -0.325837,0.0717 -0.450617,0.21445 -0.123835,0.14274 -0.186036,0.34103 -0.186036,0.59531 0,0.26942 0.0616,0.4626 0.184486,0.57982 0.123835,0.11627 0.268047,0.17466 0.43253,0.17466 0.118166,0 0.21341,-0.019 0.285255,-0.0568 0.07184,-0.0378 0.132922,-0.0956 0.183968,-0.17311 0.0028,0.20891 -0.01369,0.35433 -0.04961,0.43563 -0.0605,0.13802 -0.188274,0.20671 -0.383955,0.20671 -0.123836,0 -0.21467,-0.028 -0.272336,-0.0847 -0.03687,-0.0369 -0.06161,-0.0896 -0.0739,-0.15762 h -0.259416 c 0.01323,0.15597 0.07552,0.27034 0.187068,0.34313 0.111546,0.0737 0.249354,0.11059 0.412896,0.11059 0.293986,0 0.493569,-0.10295 0.599445,-0.30902 0.05672,-0.11155 0.08527,-0.26398 0.08527,-0.45682 v -1.3808 H 12.49584 v 0.1912 c -0.0501,-0.0633 -0.09907,-0.1116 -0.147277,-0.14469 -0.08886,-0.0586 -0.193016,-0.0879 -0.312127,-0.0879 z m -1.546674,0.20567 c 0.175829,0 0.299709,0.0699 0.371554,0.2098 0.04537,0.0889 0.0677,0.20444 0.0677,0.34624 0,0.15692 -0.03123,0.29932 -0.09457,0.42788 -0.06239,0.12761 -0.17857,0.19172 -0.347781,0.19172 -0.154087,0 -0.26655,-0.054 -0.337448,-0.16175 -0.0709,-0.10777 -0.106457,-0.24247 -0.106457,-0.40411 0,-0.16827 0.03555,-0.31188 0.106453,-0.43099 0.0709,-0.11911 0.184571,-0.1788 0.340549,-0.1788 z m 8.917283,0.009 c 0.175829,0 0.297114,0.0833 0.363287,0.25063 0.03498,0.087 0.05219,0.19112 0.05219,0.31213 0,0.19851 -0.03945,0.34783 -0.118856,0.44803 -0.07846,0.0993 -0.177514,0.14883 -0.296625,0.14883 -0.175826,0 -0.296595,-0.0782 -0.362767,-0.23513 -0.03497,-0.0822 -0.05271,-0.18199 -0.05271,-0.29921 0,-0.14557 0.01774,-0.26565 0.05271,-0.36018 0.06523,-0.17677 0.185994,-0.2651 0.362767,-0.2651 z m -11.1352365,10e-4 c 0.133289,0 0.234243,0.0527 0.302307,0.15761 0.069,0.10493 0.103352,0.23712 0.103352,0.39688 0,0.1796 -0.03435,0.32442 -0.103352,0.43408 -0.06806,0.10966 -0.17101,0.16433 -0.309025,0.16433 -0.183391,0 -0.309089,-0.0838 -0.376206,-0.25115 -0.03592,-0.0889 -0.05374,-0.20452 -0.05374,-0.34726 0,-0.19757 0.04377,-0.33928 0.130741,-0.4253 0.08791,-0.086 0.189651,-0.12919 0.305925,-0.12919 z m 7.0729545,0 c 0.163539,0 0.280413,0.0616 0.350366,0.18448 0.03781,0.0662 0.06195,0.1545 0.07235,0.2651 h -0.843878 c 0.0047,-0.13045 0.04669,-0.23781 0.12609,-0.32194 0.07941,-0.0851 0.177855,-0.12764 0.295074,-0.12764 z m 8.723497,0 c 0.163539,0 0.280414,0.0616 0.350367,0.18448 0.03781,0.0662 0.06144,0.1545 0.07183,0.2651 h -0.84336 c 0.0047,-0.13045 0.04669,-0.23781 0.126093,-0.32194 0.07941,-0.0851 0.177853,-0.12764 0.29507,-0.12764 z m -11.984796,0.0103 c 0.120054,0 0.218588,0.0452 0.296105,0.13591 0.07752,0.0907 0.116271,0.22994 0.116271,0.41806 0,0.12478 -0.02042,0.23404 -0.06201,0.32763 -0.07468,0.16543 -0.203671,0.24804 -0.387056,0.24804 -0.117221,0 -0.211172,-0.044 -0.28112,-0.1328 -0.06901,-0.0898 -0.103354,-0.22061 -0.103354,-0.39171 0,-0.14558 0.01773,-0.26315 0.05271,-0.35295 0.06617,-0.16827 0.188844,-0.25218 0.368454,-0.25218 z m 9.887251,0.54725 v 0.20568 c 0,0.15692 -0.07059,0.26947 -0.212392,0.33848 -0.08413,0.0416 -0.171161,0.0625 -0.260966,0.0625 -0.07373,0 -0.137319,-0.021 -0.191201,-0.0636 -0.05388,-0.0425 -0.08113,-0.10094 -0.08113,-0.17467 0,-0.0974 0.03936,-0.16796 0.117822,-0.21239 0.04632,-0.0265 0.115615,-0.0461 0.208256,-0.0584 l 0.154511,-0.0196 c 0.04727,-0.006 0.09554,-0.0152 0.144695,-0.0284 0.04916,-0.0132 0.08921,-0.0298 0.120407,-0.0496 z"
       id="text817-1"
       inkscape:connector-curvature="0" />
  </g>
</svg>
